<svg width="128" height="59" viewBox="0 0 128 59" fill="none" xmlns="http://www.w3.org/2000/svg">
<path opacity="0.2" d="M29.5 1.5C44.964 1.5 57.5 14.036 57.5 29.5C57.5 44.964 44.964 57.5 29.5 57.5C14.036 57.5 1.5 44.964 1.5 29.5C1.5 14.036 14.036 1.5 29.5 1.5Z" stroke="#2563EB" stroke-width="3"/>
<path opacity="0.2" d="M52.5 4C66.5833 4 78 15.4167 78 29.5C78 43.5833 66.5833 55 52.5 55C38.4167 55 27 43.5833 27 29.5C27 15.4167 38.4167 4 52.5 4Z" stroke="#2563EB" stroke-width="8"/>
<path opacity="0.7" d="M105 29.5C105 45.7924 91.7924 59 75.5 59C59.2076 59 46 45.7924 46 29.5C46 13.2076 59.2076 0 75.5 0C91.7924 0 105 13.2076 105 29.5ZM53.8891 29.5C53.8891 48.4483 67.4306 52.1109 75.5 52.1109C83.5694 52.1109 98.1109 37.5694 98.1109 29.5C98.1109 21.4306 83.5694 6.88912 75.5 6.88912C67.4306 6.88912 53.8891 10.5517 53.8891 29.5Z" fill="#2563EB"/>
<path d="M128 29.5C128 45.7924 114.792 59 98.5 59C82.2076 59 69 45.7924 69 29.5C69 13.2076 82.2076 0 98.5 0C114.792 0 128 13.2076 128 29.5ZM83.8891 29.5C83.8891 37.5694 90.4306 44.1109 98.5 44.1109C106.569 44.1109 113.111 37.5694 113.111 29.5C113.111 21.4306 106.569 14.8891 98.5 14.8891C90.4306 14.8891 83.8891 21.4306 83.8891 29.5Z" fill="#1D4ED8"/>
</svg>
